<?xml version="1.0" encoding="utf-8"?><!-- Generator: Adobe Illustrator 25.2.1, SVG Export Plug-In . SVG Version: 6.00 Build 0)  --><svg fill="#1C2033" width="52" height="52" version="1.1" id="lni_lni-shopping-bag-13" xmlns="http://www.w3.org/2000/svg" xmlns:xlink="http://www.w3.org/1999/xlink"	 x="0px" y="0px" viewBox="0 0 64 64" style="enable-background:new 0 0 64 64;" xml:space="preserve"><g>	<path d="M53.9,1.8H10.1c-4.6,0-8.3,3.7-8.3,8.3v35.8c0,9,7.3,16.4,16.4,16.4h27.8c9,0,16.4-7.3,16.4-16.4V10.1		C62.2,5.5,58.5,1.8,53.9,1.8z M57.8,45.9c0,6.5-5.3,11.9-11.9,11.9H18.1c-6.5,0-11.9-5.3-11.9-11.9V10.1C6.2,8,8,6.2,10.1,6.2h43.9		c2.1,0,3.8,1.7,3.8,3.8V45.9z"/>	<path d="M44.1,13.3c-1.2,0-2.2,1-2.2,2.2v10.1c0,5.4-4.4,9.9-9.9,9.9s-9.9-4.4-9.9-9.9V15.6c0-1.2-1-2.2-2.2-2.2s-2.2,1-2.2,2.2		v10.1C17.6,33.6,24.1,40,32,40s14.4-6.4,14.4-14.4V15.6C46.4,14.3,45.3,13.3,44.1,13.3z"/></g></svg>