<svg fill="#1C2033" width="52" height="52" viewBox="0 0 64 64" xmlns="http://www.w3.org/2000/svg"><path d="M11.5984 62.2992C11.1984 62.2992 10.7984 62.1992 10.4984 61.9992C9.79844 61.5992 9.39844 60.8992 9.39844 59.9992V7.99922C9.39844 4.59922 12.1984 1.69922 15.6984 1.69922H48.5984C51.9984 1.69922 54.8984 4.49922 54.8984 7.99922V59.8992C54.8984 60.6992 54.4984 61.3992 53.7984 61.7992C53.0984 62.1992 52.1984 62.1992 51.5984 61.7992L31.9984 50.6992L12.6984 61.8992C12.2984 62.0992 11.8984 62.2992 11.5984 62.2992ZM15.5984 6.29922C14.5984 6.29922 13.7984 7.09922 13.7984 8.09922V56.1992L30.8984 46.2992C31.5984 45.8992 32.4984 45.8992 33.1984 46.2992L50.1984 55.9992V7.99922C50.1984 6.99922 49.3984 6.19922 48.3984 6.19922H15.5984V6.29922Z"/></svg>