<svg fill="#1C2033" width="52" height="52" viewBox="0 0 64 64" xmlns="http://www.w3.org/2000/svg"><path d="M16.7 34.9004H12.3C11.1 34.9004 10 35.9004 10 37.2004C10 38.5004 11 39.5004 12.3 39.5004H16.7C17.9 39.5004 19 38.5004 19 37.2004C19 35.9004 17.9 34.9004 16.7 34.9004Z"/><path d="M41.2 34.9004H36.8C35.6 34.9004 34.5 35.9004 34.5 37.2004C34.5 38.5004 35.5 39.5004 36.8 39.5004H41.2C42.4 39.5004 43.5 38.5004 43.5 37.2004C43.5 35.9004 42.4 34.9004 41.2 34.9004Z"/><path d="M56.6992 32.3V19C59.1992 18.1 60.8992 15.7 60.8992 13C60.8992 9.4 57.9992 6.5 54.3992 6.5C50.7992 6.5 47.8992 9.4 47.8992 13C47.8992 15.8 49.6992 18.1 52.0992 19V32.2H50.9992V31.5C50.9992 27.5 47.6992 24.2 43.6992 24.2H37.9992V22C37.9992 18.7 35.2992 16.1 32.0992 16.1H28.9992V9.5C28.9992 8.3 27.9992 7.2 26.6992 7.2C25.3992 7.2 24.3992 8.2 24.3992 9.5V16.1H21.1992C17.8992 16.1 15.2992 18.8 15.2992 22V24.2H8.99922C4.99922 24.2 1.69922 27.5 1.69922 31.5V50.2C1.69922 54.2 4.99922 57.5 8.99922 57.5H43.7992C47.7992 57.5 51.0992 54.2 51.0992 50.2V49.5H56.3992C59.6992 49.5 62.2992 46.8 62.2992 43.6V38.3C62.2992 35 59.7992 32.5 56.6992 32.3ZM54.3992 11C55.4992 11 56.3992 11.9 56.3992 13C56.3992 14.1 55.4992 15 54.3992 15C53.2992 15 52.3992 14.1 52.3992 13C52.3992 11.9 53.2992 11 54.3992 11ZM19.8992 22C19.8992 21.2 20.4992 20.6 21.2992 20.6H32.0992C32.8992 20.6 33.4992 21.2 33.4992 22V24.2H19.8992V22ZM46.4992 50.2C46.4992 51.7 45.2992 53 43.6992 53H8.99922C7.49922 53 6.19922 51.8 6.19922 50.2V31.5C6.19922 30 7.39922 28.7 8.99922 28.7H43.7992C45.2992 28.7 46.5992 29.9 46.5992 31.5V50.2H46.4992ZM57.7992 43.5C57.7992 44.3 57.1992 44.9 56.3992 44.9H50.9992V36.7H56.2992C57.0992 36.7 57.6992 37.3 57.6992 38.1V43.5H57.7992Z"/><path d="M30.3992 42C29.1992 42 28.0992 43 28.0992 44.3C28.0992 45.1 27.4992 45.7 26.6992 45.7C25.8992 45.7 25.2992 45.1 25.2992 44.3C25.2992 43.1 24.2992 42 22.9992 42C21.6992 42 20.6992 43 20.6992 44.3C20.6992 47.6 23.3992 50.2 26.5992 50.2C29.7992 50.2 32.4992 47.5 32.4992 44.3C32.5992 43 31.5992 42 30.3992 42Z"/></svg>