<svg fill="#1C2033" width="52" height="52" viewBox="0 0 64 64" xmlns="http://www.w3.org/2000/svg"><path d="M54.9992 10.5996H50.7992V8.39961C50.7992 7.19961 49.7992 6.09961 48.4992 6.09961C47.1992 6.09961 46.1992 7.09961 46.1992 8.39961V10.5996H17.6992V8.39961C17.6992 7.19961 16.6992 6.09961 15.3992 6.09961C14.0992 6.09961 13.0992 7.09961 13.0992 8.39961V10.5996H8.99922C4.99922 10.5996 1.69922 13.8996 1.69922 17.8996V50.6996C1.69922 54.6996 4.99922 57.9996 8.99922 57.9996H54.9992C58.9992 57.9996 62.2992 54.6996 62.2992 50.6996V17.7996C62.2992 13.7996 58.9992 10.5996 54.9992 10.5996ZM8.99922 15.0996H13.1992V15.9996C13.1992 17.1996 14.1992 18.2996 15.4992 18.2996C16.7992 18.2996 17.7992 17.2996 17.7992 15.9996V15.0996H46.3992V15.9996C46.3992 17.1996 47.3992 18.2996 48.6992 18.2996C49.9992 18.2996 50.9992 17.2996 50.9992 15.9996V15.0996H54.9992C56.4992 15.0996 57.7992 16.2996 57.7992 17.8996V23.4996H6.29922V17.8996C6.29922 16.2996 7.49922 15.0996 8.99922 15.0996ZM54.9992 53.3996H8.99922C7.49922 53.3996 6.19922 52.1996 6.19922 50.5996V27.9996H57.6992V50.6996C57.7992 52.1996 56.4992 53.3996 54.9992 53.3996Z"/><path d="M38.7988 33.4992L30.0988 42.1992L27.2988 39.3992C26.3988 38.4992 24.9988 38.4992 24.0988 39.3992C23.1988 40.2992 23.1988 41.6992 24.0988 42.5992L28.4988 46.9992C28.8988 47.3992 29.4988 47.6992 30.0988 47.6992C30.6988 47.6992 31.2988 47.4992 31.6988 46.9992L41.9988 36.6992C42.8988 35.7992 42.8988 34.3992 41.9988 33.4992C41.0988 32.5992 39.6988 32.5992 38.7988 33.4992Z"/></svg>