<svg fill="#1C2033" width="52" height="52" viewBox="0 0 64 64" xmlns="http://www.w3.org/2000/svg"><path d="M55.9992 10.5996H50.5992V8.39961C50.5992 7.19961 49.5992 6.09961 48.2992 6.09961C46.9992 6.09961 45.9992 7.09961 45.9992 8.39961V10.4996H17.8992V8.39961C17.8992 7.19961 16.8992 6.09961 15.5992 6.09961C14.2992 6.09961 13.2992 7.09961 13.2992 8.39961V10.4996H7.99922C4.59922 10.4996 1.69922 13.2996 1.69922 16.7996V51.5996C1.69922 54.9996 4.49922 57.8996 7.99922 57.8996H55.9992C59.3992 57.8996 62.2992 55.0996 62.2992 51.5996V16.7996C62.2992 13.3996 59.3992 10.5996 55.9992 10.5996ZM7.99922 15.0996H13.3992V17.0996C13.3992 18.2996 14.3992 19.3996 15.6992 19.3996C16.9992 19.3996 17.9992 18.3996 17.9992 17.0996V15.0996H46.2992V17.0996C46.2992 18.2996 47.2992 19.3996 48.5992 19.3996C49.8992 19.3996 50.8992 18.3996 50.8992 17.0996V15.0996H55.9992C56.9992 15.0996 57.7992 15.8996 57.7992 16.8996V23.4996H6.29922V16.8996C6.29922 15.7996 6.99922 15.0996 7.99922 15.0996ZM55.9992 53.2996H7.99922C6.99922 53.2996 6.19922 52.4996 6.19922 51.4996V27.8996H57.6992V51.5996C57.7992 52.5996 56.9992 53.2996 55.9992 53.2996Z"/><path d="M28.7996 30.6992H26.5996C25.9996 30.6992 25.5996 31.0992 25.5996 31.6992V33.8992C25.5996 34.4992 25.9996 34.8992 26.5996 34.8992H28.7996C29.3996 34.8992 29.7996 34.4992 29.7996 33.8992V31.6992C29.7996 31.0992 29.2996 30.6992 28.7996 30.6992Z"/><path d="M37.8992 30.6992H35.6992C35.0992 30.6992 34.6992 31.0992 34.6992 31.6992V33.8992C34.6992 34.4992 35.0992 34.8992 35.6992 34.8992H37.8992C38.4992 34.8992 38.8992 34.4992 38.8992 33.8992V31.6992C38.8992 31.0992 38.4992 30.6992 37.8992 30.6992Z"/><path d="M46.9988 30.6992H44.7988C44.1988 30.6992 43.7988 31.0992 43.7988 31.6992V33.8992C43.7988 34.4992 44.1988 34.8992 44.7988 34.8992H46.9988C47.5988 34.8992 47.9988 34.4992 47.9988 33.8992V31.6992C47.9988 31.0992 47.5988 30.6992 46.9988 30.6992Z"/><path d="M19.2 38.4004H17C16.4 38.4004 16 38.8004 16 39.4004V41.6004C16 42.2004 16.4 42.6004 17 42.6004H19.2C19.8 42.6004 20.2 42.2004 20.2 41.6004V39.4004C20.2 38.8004 19.7 38.4004 19.2 38.4004Z"/><path d="M28.7996 38.4004H26.5996C25.9996 38.4004 25.5996 38.8004 25.5996 39.4004V41.6004C25.5996 42.2004 25.9996 42.6004 26.5996 42.6004H28.7996C29.3996 42.6004 29.7996 42.2004 29.7996 41.6004V39.4004C29.7996 38.8004 29.2996 38.4004 28.7996 38.4004Z"/><path d="M37.8992 38.4004H35.6992C35.0992 38.4004 34.6992 38.8004 34.6992 39.4004V41.6004C34.6992 42.2004 35.0992 42.6004 35.6992 42.6004H37.8992C38.4992 42.6004 38.8992 42.2004 38.8992 41.6004V39.4004C38.8992 38.8004 38.4992 38.4004 37.8992 38.4004Z"/><path d="M46.9988 38.4004H44.7988C44.1988 38.4004 43.7988 38.8004 43.7988 39.4004V41.6004C43.7988 42.2004 44.1988 42.6004 44.7988 42.6004H46.9988C47.5988 42.6004 47.9988 42.2004 47.9988 41.6004V39.4004C47.9988 38.8004 47.5988 38.4004 46.9988 38.4004Z"/><path d="M19.2 46.0996H17C16.4 46.0996 16 46.4996 16 47.0996V49.2996C16 49.8996 16.4 50.2996 17 50.2996H19.2C19.8 50.2996 20.2 49.8996 20.2 49.2996V47.0996C20.2 46.4996 19.7 46.0996 19.2 46.0996Z"/><path d="M28.7996 46.0996H26.5996C25.9996 46.0996 25.5996 46.4996 25.5996 47.0996V49.2996C25.5996 49.8996 25.9996 50.2996 26.5996 50.2996H28.7996C29.3996 50.2996 29.7996 49.8996 29.7996 49.2996V47.0996C29.7996 46.4996 29.2996 46.0996 28.7996 46.0996Z"/><path d="M37.8992 46.0996H35.6992C35.0992 46.0996 34.6992 46.4996 34.6992 47.0996V49.2996C34.6992 49.8996 35.0992 50.2996 35.6992 50.2996H37.8992C38.4992 50.2996 38.8992 49.8996 38.8992 49.2996V47.0996C38.8992 46.4996 38.4992 46.0996 37.8992 46.0996Z"/></svg>