<svg fill="#1C2033" width="52" height="52" version="1.1" id="lni_lni-calender-minus" xmlns="http://www.w3.org/2000/svg" xmlns:xlink="http://www.w3.org/1999/xlink"	 x="0px" y="0px" viewBox="0 0 64 64" style="enable-background:new 0 0 64 64;" xml:space="preserve"><g>	<path d="M55.3,6.9h-4.4V4.6c0-1.2-1-2.2-2.2-2.2s-2.2,1-2.2,2.2v2.3H17.6V4.6c0-1.2-1-2.2-2.2-2.2s-2.2,1-2.2,2.2v2.3H8.7		c-3.8,0-6.9,3.1-6.9,6.9v27.8c0,3.8,3.1,6.9,6.9,6.9h21.7c1.2,0,2.2-1,2.2-2.2s-1-2.2-2.2-2.2H8.7c-1.3,0-2.4-1.1-2.4-2.4V24.2		h51.5v10.5c0,1.2,1,2.2,2.2,2.2s2.2-1,2.2-2.2v-21C62.2,10,59.1,6.9,55.3,6.9z M6.2,19.7v-6c0-1.3,1.1-2.4,2.4-2.4h4.4v1		c0,1.2,1,2.2,2.2,2.2s2.2-1,2.2-2.2v-1h28.8v1c0,1.2,1,2.2,2.2,2.2s2.2-1,2.2-2.2v-1h4.4c1.3,0,2.4,1.1,2.4,2.4v6H6.2z"/>	<path d="M48.3,36.1c-7.1,0-12.8,5.7-12.8,12.8s5.7,12.8,12.8,12.8s12.8-5.7,12.8-12.8S55.3,36.1,48.3,36.1z M48.3,57.2		c-4.6,0-8.3-3.7-8.3-8.3s3.7-8.3,8.3-8.3s8.3,3.7,8.3,8.3S52.9,57.2,48.3,57.2z"/>	<path d="M51.4,46.6h-6.2c-1.2,0-2.2,1-2.2,2.2s1,2.2,2.2,2.2h6.2c1.2,0,2.2-1,2.2-2.2S52.6,46.6,51.4,46.6z"/></g></svg>