<?xml version="1.0" encoding="utf-8"?><!-- Generator: Adobe Illustrator 22.0.0, SVG Export Plug-In . SVG Version: 6.00 Build 0)  --><svg fill="#1C2033" width="52" height="52" version="1.1" id="lni_lni-bar-chart-1" xmlns="http://www.w3.org/2000/svg" xmlns:xlink="http://www.w3.org/1999/xlink"	 x="0px" y="0px" viewBox="0 0 64 64" style="enable-background:new 0 0 64 64;" xml:space="preserve"><g>	<path d="M60,55.2H6.3V6.6c0-1.2-1-2.3-2.3-2.3s-2.3,1-2.3,2.3v50.9c0,1.2,1,2.3,2.3,2.3h56c1.2,0,2.3-1,2.3-2.3S61.2,55.2,60,55.2z		"/>	<path d="M18.9,41c4.3,0,7.7-3.5,7.7-7.7c0-0.8-0.1-1.7-0.4-2.4l4.1-2.6c1.4,1.2,3.1,2,5.1,2c4.3,0,7.7-3.5,7.7-7.7		c0-0.7-0.1-1.5-0.3-2.2l5.3-2.9c1.4,1.4,3.3,2.2,5.4,2.2c4.3,0,7.7-3.5,7.7-7.7s-3.5-7.7-7.7-7.7s-7.7,3.5-7.7,7.7		c0,0.5,0.1,1.1,0.2,1.6l-5.6,3.1c-1.3-1.1-3.1-1.8-4.9-1.8c-4.3,0-7.7,3.5-7.7,7.7c0,0.7,0.1,1.3,0.3,1.9l-4.4,2.7		c-1.3-1-2.9-1.6-4.7-1.6c-4.3,0-7.7,3.5-7.7,7.7S14.6,41,18.9,41z M53.5,8.8c1.8,0,3.2,1.4,3.2,3.2s-1.4,3.2-3.2,3.2		s-3.2-1.4-3.2-3.2S51.7,8.8,53.5,8.8z M35.4,19.4c1.8,0,3.2,1.4,3.2,3.2s-1.4,3.2-3.2,3.2s-3.2-1.4-3.2-3.2S33.6,19.4,35.4,19.4z		 M18.9,30.1c1.8,0,3.2,1.4,3.2,3.2s-1.4,3.2-3.2,3.2s-3.2-1.4-3.2-3.2S17.1,30.1,18.9,30.1z"/></g></svg>