<svg fill="#1C2033" width="52" height="52" viewBox="0 0 64 64" xmlns="http://www.w3.org/2000/svg"><path d="M60.7002 25.8008C59.7002 24.7008 58.3002 24.1008 56.8002 24.1008H56.5002C56.0002 24.1008 55.6002 23.8008 55.5002 23.4008C55.4002 23.0008 55.2002 22.7008 55.1002 22.3008C54.9002 21.9008 55.1002 21.5008 55.4002 21.2008L55.6002 21.0008C56.7002 20.0008 57.3002 18.6008 57.3002 17.1008C57.3002 15.6008 56.8002 14.2008 55.7002 13.1008L51.8002 9.10078C49.7002 6.90078 46.1002 6.80078 43.9002 9.00078L43.6002 9.20078C43.3002 9.50078 42.8002 9.60078 42.3002 9.40078C41.9002 9.20078 41.5002 9.00078 41.0002 8.90078C40.5002 8.70078 40.2002 8.30078 40.2002 7.90078V7.40078C40.2002 4.30078 37.7002 1.80078 34.6002 1.80078H29.0002C27.5002 1.80078 26.1002 2.40078 25.1002 3.40078C24.0002 4.50078 23.5002 5.90078 23.5002 7.30078V7.70078C23.5002 8.10078 23.2002 8.50078 22.8002 8.70078C22.6002 8.80078 22.5002 8.80078 22.3002 8.90078C21.9002 9.10078 21.4002 9.00078 21.1002 8.70078L20.9002 8.40078C19.9002 7.30078 18.5002 6.70078 17.0002 6.70078C15.5002 6.70078 14.1002 7.20078 13.0002 8.30078L9.00016 12.2008C6.80016 14.3008 6.70016 17.9008 8.90016 20.1008L9.10016 20.4008C9.40016 20.7008 9.50016 21.2008 9.30016 21.5008C9.10016 21.9008 9.00016 22.2008 8.80016 22.6008C8.60016 23.0008 8.30016 23.2008 7.80016 23.2008H7.50016C6.00016 23.2008 4.60016 23.7008 3.50016 24.8008C2.40016 25.8008 1.80016 27.2008 1.80016 28.7008L1.70016 34.3008C1.60016 37.4008 4.10016 39.9008 7.20016 40.0008H7.50016C8.00016 40.0008 8.40016 40.3008 8.50016 40.7008C8.70016 41.0008 8.90016 41.3008 9.00016 41.7008C9.10016 42.1008 9.00016 42.5008 8.70016 42.8008L8.50016 43.0008C7.40016 44.0008 6.80016 45.4008 6.80016 46.9008C6.80016 48.4008 7.30016 49.8008 8.40016 50.9008L12.3002 54.9008C14.4002 57.1008 18.0002 57.2008 20.2002 55.0008L20.5002 54.8008C20.8002 54.5008 21.3002 54.4008 21.8002 54.6008C22.2002 54.8008 22.6002 55.0008 23.1002 55.1008C23.6002 55.3008 23.9002 55.7008 23.9002 56.1008V56.5008C23.9002 59.6008 26.4002 62.1008 29.5002 62.1008H35.1002C38.2002 62.1008 40.7002 59.6008 40.7002 56.5008V56.1008C40.7002 55.7008 41.0002 55.3008 41.4002 55.1008C41.6002 55.0008 41.7002 55.0008 41.9002 54.9008C42.4002 54.7008 42.8002 54.8008 43.1002 55.1008L43.3002 55.4008C44.3002 56.5008 45.7002 57.1008 47.2002 57.1008C48.7002 57.1008 50.1002 56.6008 51.2002 55.5008L55.2002 51.6008C57.4002 49.5008 57.5002 45.9008 55.3002 43.7008L55.1002 43.4008C54.8002 43.1008 54.7002 42.6008 54.9002 42.3008C55.1002 41.9008 55.2002 41.6008 55.4002 41.2008C55.6002 40.8008 56.0002 40.6008 56.4002 40.6008H56.7002H56.8002C59.8002 40.6008 62.3002 38.2008 62.4002 35.1008L62.5002 29.5008C62.3002 28.3008 61.7002 26.8008 60.7002 25.8008ZM57.7002 35.2008C57.7002 35.8008 57.2002 36.3008 56.6002 36.3008H56.3002H56.2002C53.9002 36.3008 51.8002 37.7008 51.0002 39.7008C50.9002 40.0008 50.7002 40.3008 50.6002 40.6008C49.7002 42.6008 50.1002 45.1008 51.7002 46.7008L51.9002 47.0008C52.3002 47.4008 52.3002 48.1008 51.9002 48.5008L47.9002 52.4008C47.6002 52.7008 47.3002 52.7008 47.1002 52.7008C46.9002 52.7008 46.6002 52.7008 46.3002 52.4008L46.1002 52.1008C44.5002 50.4008 42.1002 49.9008 39.9002 50.9008L39.5002 51.1008C37.3002 52.0008 35.9002 54.0008 35.9002 56.3008V56.7008C35.9002 57.3008 35.4002 57.8008 34.8002 57.8008H29.2002C28.6002 57.8008 28.1002 57.3008 28.1002 56.7008V56.3008C28.1002 54.0008 26.7002 51.9008 24.5002 51.1008C24.2002 51.0008 23.8002 50.8008 23.5002 50.7008C22.7002 50.3008 21.9002 50.2008 21.1002 50.2008C19.7002 50.2008 18.3002 50.7008 17.2002 51.8008L17.0002 51.9008C16.6002 52.3008 15.9002 52.3008 15.5002 51.9008L11.6002 47.9008C11.3002 47.6008 11.3002 47.3008 11.3002 47.1008C11.3002 46.9008 11.3002 46.6008 11.6002 46.3008L11.8002 46.1008C13.5002 44.5008 14.0002 42.0008 13.1002 40.0008C13.0002 39.7008 12.9002 39.4008 12.7002 39.1008C11.9002 37.0008 9.90016 35.5008 7.60016 35.5008H7.30016C6.70016 35.5008 6.20016 35.0008 6.20016 34.4008L6.30016 28.8008C6.30016 28.4008 6.50016 28.2008 6.60016 28.0008C6.70016 27.9008 7.00016 27.7008 7.40016 27.7008H7.70016C10.0002 27.8008 12.1002 26.4008 13.0002 24.3008C13.1002 24.0008 13.3002 23.7008 13.4002 23.4008C14.3002 21.4008 13.9002 18.9008 12.3002 17.3008L12.1002 17.0008C11.7002 16.6008 11.7002 15.9008 12.1002 15.5008L16.1002 11.6008C16.4002 11.3008 16.7002 11.3008 16.9002 11.3008C17.1002 11.3008 17.4002 11.3008 17.7002 11.6008L17.9002 11.9008C19.5002 13.6008 21.9002 14.1008 24.1002 13.2008L24.5002 13.0008C26.7002 12.1008 28.1002 10.1008 28.1002 7.80078V7.40078C28.1002 7.00078 28.3002 6.80078 28.4002 6.60078C28.5002 6.40078 28.8002 6.30078 29.2002 6.30078H34.8002C35.4002 6.30078 35.9002 6.80078 35.9002 7.40078V7.80078C35.9002 10.1008 37.3002 12.2008 39.5002 13.0008C39.8002 13.1008 40.2002 13.3008 40.5002 13.4008C42.6002 14.4008 45.1002 14.0008 46.8002 12.4008L47.1002 12.2008C47.5002 11.8008 48.2002 11.8008 48.6002 12.2008L52.5002 16.2008C52.8002 16.5008 52.8002 16.8008 52.8002 17.0008C52.8002 17.2008 52.7002 17.5008 52.5002 17.8008L52.3002 18.0008C50.5002 19.5008 50.0002 22.0008 50.8002 24.0008C50.9002 24.3008 51.0002 24.6008 51.2002 24.9008C52.0002 27.0008 54.0002 28.5008 56.3002 28.5008H56.6002C57.0002 28.5008 57.2002 28.7008 57.4002 28.8008C57.6002 28.9008 57.7002 29.2008 57.7002 29.6008V35.2008Z"/><path d="M32.0004 18.4004C24.5004 18.4004 18.4004 24.5004 18.4004 32.0004C18.4004 39.5004 24.5004 45.6004 32.0004 45.6004C39.5004 45.6004 45.6004 39.5004 45.6004 32.0004C45.6004 24.5004 39.5004 18.4004 32.0004 18.4004ZM32.0004 41.1004C27.0004 41.1004 22.9004 37.0004 22.9004 32.0004C22.9004 27.0004 27.0004 22.9004 32.0004 22.9004C37.0004 22.9004 41.1004 27.0004 41.1004 32.0004C41.1004 37.0004 37.0004 41.1004 32.0004 41.1004Z"/></svg>