<svg fill="#1C2033" width="52" height="52" viewBox="0 0 64 64" xmlns="http://www.w3.org/2000/svg"><path d="M31.9992 23.7012C27.3992 23.7012 23.6992 27.4012 23.6992 32.0012C23.6992 36.6012 27.3992 40.3012 31.9992 40.3012C36.5992 40.3012 40.2992 36.6012 40.2992 32.0012C40.2992 27.4012 36.5992 23.7012 31.9992 23.7012ZM31.9992 35.8012C29.8992 35.8012 28.1992 34.1012 28.1992 32.0012C28.1992 29.9012 29.8992 28.2012 31.9992 28.2012C34.0992 28.2012 35.7992 29.9012 35.7992 32.0012C35.7992 34.1012 34.0992 35.8012 31.9992 35.8012Z"/><path d="M61.2 28.5004C55.5 20.0004 47.6 11.4004 32 11.4004C16.4 11.4004 8.5 20.0004 2.8 28.5004C1.4 30.6004 1.4 33.4004 2.8 35.5004C8.5 43.9004 16.4 52.6004 32 52.6004C47.6 52.6004 55.5 43.9004 61.2 35.5004C62.6 33.3004 62.6 30.6004 61.2 28.5004ZM57.5 33.0004C50.2 43.7004 42.9 48.1004 32 48.1004C21.1 48.1004 13.8 43.7004 6.5 33.0004C6.1 32.4004 6.1 31.6004 6.5 31.0004C13.8 20.3004 21.1 15.9004 32 15.9004C42.9 15.9004 50.2 20.3004 57.5 31.0004C57.8 31.6004 57.8 32.4004 57.5 33.0004Z"/></svg>