<svg fill="#1C2033" width="52" height="52" viewBox="0 0 64 64" xmlns="http://www.w3.org/2000/svg"><path d="M31.9 1.09961C14.5 1.09961 1 13.8996 1 31.0996C1 40.1996 4.7 47.9996 10.7 53.2996C11.1 53.6996 11.4 54.3996 11.5 54.9996L11.6 60.4996C11.7 62.1996 13.4 63.4996 15.1 62.6996L21.3 59.9996C21.7 59.8996 22.4 59.6996 23 59.8996C25.8 60.5996 28.8 61.1996 32 61.1996C49.5 61.0996 63 48.2996 63 31.1996C63 14.0996 49.4 1.09961 31.9 1.09961ZM50.5 24.1996L41.4 38.4996C40 40.6996 36.9 41.4996 34.8 39.7996L27.6 34.2996C26.9 33.8996 26.1 33.8996 25.4 34.2996L15.6 41.5996C14.3 42.5996 12.6 40.9996 13.5 39.5996L22.6 25.2996C24 23.0996 27.1 22.2996 29.2 23.9996L36.4 29.4996C37.1 29.8996 37.9 29.8996 38.6 29.4996L48.3 21.9996C49.8 21.3996 51.3 22.8996 50.5 24.1996Z"/></svg>