<svg fill="#1C2033" width="52" height="52" viewBox="0 0 64 64" xmlns="http://www.w3.org/2000/svg"><path d="M42.4387 61.1008C36.9249 61.1008 32.2972 57.1008 31.2141 51.8008H4.43258C3.25105 51.8008 2.16797 50.8008 2.16797 49.5008C2.16797 48.2008 3.15258 47.2008 4.43258 47.2008H31.2141C32.2972 42.0008 36.9249 38.0008 42.4387 38.0008C47.9526 38.0008 52.5803 42.0008 53.6634 47.3008H59.571C60.7526 47.3008 61.8357 48.3008 61.8357 49.6008C61.8357 50.9008 60.851 51.9008 59.571 51.9008H53.6634C52.5803 57.1008 47.9526 61.1008 42.4387 61.1008ZM42.4387 42.5008C38.5987 42.5008 35.448 45.7008 35.448 49.5008C35.448 53.3008 38.5987 56.5008 42.4387 56.5008C46.2787 56.5008 49.4295 53.3008 49.4295 49.5008C49.4295 45.7008 46.2787 42.5008 42.4387 42.5008ZM25.1095 43.5008C19.5957 43.5008 14.968 39.5008 13.8849 34.2008H4.43258C3.25105 34.2008 2.16797 33.2008 2.16797 31.9008C2.16797 30.7008 3.15258 29.6008 4.43258 29.6008H13.8849C14.968 24.3008 19.5957 20.3008 25.1095 20.3008C30.6234 20.3008 35.251 24.3008 36.3341 29.6008H59.6695C60.851 29.6008 61.9341 30.6008 61.9341 31.9008C61.9341 33.1008 60.9495 34.2008 59.6695 34.2008H36.2357C35.251 39.5008 30.6234 43.5008 25.1095 43.5008ZM25.1095 25.0008C21.2695 25.0008 18.1187 28.2008 18.1187 32.0008C18.1187 35.9008 21.2695 39.0008 25.1095 39.0008C28.9495 39.0008 32.1003 35.8008 32.1003 32.0008C32.1003 28.1008 28.9495 25.0008 25.1095 25.0008ZM50.4141 26.0008C44.9003 26.0008 40.2726 22.0008 39.1895 16.7008H4.43258C3.25105 16.7008 2.16797 15.7008 2.16797 14.4008C2.16797 13.1008 3.15258 12.1008 4.43258 12.1008H39.1895C40.2726 6.80078 44.9003 2.80078 50.4141 2.80078C56.7157 2.80078 61.8357 8.00078 61.8357 14.3008C61.8357 20.6008 56.7157 26.0008 50.4141 26.0008ZM50.4141 7.40078C46.5741 7.40078 43.4234 10.6008 43.4234 14.4008C43.4234 18.2008 46.5741 21.4008 50.4141 21.4008C54.2541 21.4008 57.4049 18.2008 57.4049 14.4008C57.4049 10.6008 54.2541 7.40078 50.4141 7.40078Z"/></svg>