<svg fill="#1C2033" width="52" height="52" viewBox="0 0 64 64" xmlns="http://www.w3.org/2000/svg"><path d="M31.9015 19.4902H31.8045C30.6409 19.4902 29.5742 20.4599 29.5742 21.7205C29.5742 22.9811 30.5439 23.9508 31.8045 23.9508H31.9015C33.0651 23.9508 34.1318 22.9811 34.1318 21.7205C34.1318 20.4599 33.1621 19.4902 31.9015 19.4902Z"/><path d="M31.9022 27.1504C30.7385 27.1504 29.6719 28.1201 29.6719 29.3807V44.314C29.6719 45.4777 30.6416 46.5443 31.9022 46.5443C33.0658 46.5443 34.1325 45.5746 34.1325 44.314V29.2837C34.1325 28.1201 33.1628 27.1504 31.9022 27.1504Z"/><path d="M31.9014 2.71484C15.7074 2.71484 2.51953 15.8058 2.51953 31.9997C2.51953 48.1936 15.7074 61.3815 31.9014 61.3815C48.0953 61.3815 61.1862 48.1936 61.1862 31.9997C61.1862 15.8058 48.0953 2.71484 31.9014 2.71484ZM31.9014 57.0179C18.1317 57.0179 6.88317 45.7694 6.88317 31.9997C6.88317 18.23 18.1317 6.98151 31.9014 6.98151C45.671 6.98151 56.8226 18.23 56.8226 31.9997C56.8226 45.7694 45.671 57.0179 31.9014 57.0179Z"/></svg>