<?xml version="1.0" encoding="utf-8"?><!-- Generator: Adobe Illustrator 25.2.1, SVG Export Plug-In . SVG Version: 6.00 Build 0)  --><svg fill="#1C2033" width="52" height="52" version="1.1" id="lni_lni-invoice-1" xmlns="http://www.w3.org/2000/svg" xmlns:xlink="http://www.w3.org/1999/xlink" x="0px"	 y="0px" viewBox="0 0 64 64" style="enable-background:new 0 0 64 64;" xml:space="preserve"><g>	<path d="M56.3,8.7c0-3.8-3.1-7-7-7H14.7c-3.8,0-7,3.1-7,7v50.2c0,0.8,0.5,1.6,1.2,2c0.7,0.4,1.6,0.3,2.3-0.1l5-3.3l6.7,4.4		c0.8,0.5,1.7,0.5,2.5,0l6.6-4.4l6.6,4.4c0.4,0.3,0.8,0.4,1.2,0.4c0.4,0,0.9-0.1,1.2-0.4l6.6-4.4l5,3.4c0.7,0.5,1.6,0.5,2.3,0.1		c0.7-0.4,1.2-1.2,1.2-2L56.3,8.7z M49.9,53.5c-1.3-0.9-3-0.9-4.3,0l-5.7,3.8l-5.7-3.8c-0.7-0.4-1.4-0.7-2.2-0.7		c-0.7,0-1.5,0.2-2.1,0.7l-5.7,3.8l-5.7-3.8c-1.3-0.9-3-0.9-4.3,0l-1.9,1.2v-46c0-1.4,1.1-2.5,2.5-2.5h34.7c1.4,0,2.5,1.1,2.5,2.5		l0,46L49.9,53.5z"/>	<path d="M28.2,13.3h-8.6c-1.2,0-2.2,1-2.2,2.2s1,2.2,2.2,2.2h8.6c1.2,0,2.2-1,2.2-2.2S29.4,13.3,28.2,13.3z"/>	<path d="M43.9,13.3h-2.4c-1.2,0-2.2,1-2.2,2.2s1,2.2,2.2,2.2h2.4c1.2,0,2.2-1,2.2-2.2S45.1,13.3,43.9,13.3z"/>	<path d="M19.6,30.9h5.5c1.2,0,2.2-1,2.2-2.2s-1-2.2-2.2-2.2h-5.5c-1.2,0-2.2,1-2.2,2.2S18.3,30.9,19.6,30.9z"/>	<path d="M43.9,26.4h-2.4c-1.2,0-2.2,1-2.2,2.2s1,2.2,2.2,2.2h2.4c1.2,0,2.2-1,2.2-2.2S45.1,26.4,43.9,26.4z"/>	<path d="M28.2,39.4h-8.6c-1.2,0-2.2,1-2.2,2.2s1,2.2,2.2,2.2h8.6c1.2,0,2.2-1,2.2-2.2S29.4,39.4,28.2,39.4z"/>	<path d="M43.9,39.4h-2.4c-1.2,0-2.2,1-2.2,2.2s1,2.2,2.2,2.2h2.4c1.2,0,2.2-1,2.2-2.2S45.1,39.4,43.9,39.4z"/></g></svg>