<svg fill="#1C2033" width="52" height="52" viewBox="0 0 64 64" xmlns="http://www.w3.org/2000/svg"><path d="M10.2992 27.9008H22.1992C23.3992 27.9008 24.4992 26.9008 24.4992 25.6008C24.4992 24.3008 23.4992 23.3008 22.1992 23.3008H10.2992C5.59922 23.3008 1.69922 27.1008 1.69922 31.9008C1.69922 36.6008 5.49922 40.5008 10.2992 40.5008H22.1992C23.3992 40.5008 24.4992 39.5008 24.4992 38.2008C24.4992 36.9008 23.4992 35.9008 22.1992 35.9008H10.2992C8.09922 35.9008 6.19922 34.1008 6.19922 31.8008C6.29922 29.8008 8.09922 27.9008 10.2992 27.9008Z"/><path d="M36.3984 29.8008H27.6984C26.4984 29.8008 25.3984 30.8008 25.3984 32.1008C25.3984 33.3008 26.3984 34.4008 27.6984 34.4008H36.3984C37.5984 34.4008 38.6984 33.4008 38.6984 32.1008C38.5984 30.8008 37.5984 29.8008 36.3984 29.8008Z"/><path d="M53.7 23.4004H41.8C40.6 23.4004 39.5 24.4004 39.5 25.7004C39.5 27.0004 40.5 28.0004 41.8 28.0004H53.7C55.9 28.0004 57.8 29.8004 57.8 32.1004C57.8 34.3004 56 36.2004 53.7 36.2004H41.8C40.6 36.2004 39.5 37.2004 39.5 38.5004C39.5 39.8004 40.5 40.8004 41.8 40.8004H53.7C58.4 40.8004 62.3 37.0004 62.3 32.2004C62.3 27.3004 58.4 23.4004 53.7 23.4004Z"/></svg>