<svg fill="#1C2033" width="52" height="52" viewBox="0 0 64 64" xmlns="http://www.w3.org/2000/svg"><path d="M40.4004 22.1016C40.4004 17.1016 36.4004 13.1016 31.4004 13.1016C26.4004 13.1016 22.4004 17.1016 22.4004 22.1016C22.4004 27.1016 26.4004 31.1016 31.4004 31.1016C36.4004 31.1016 40.4004 27.1016 40.4004 22.1016ZM26.9004 22.1016C26.9004 19.6016 28.9004 17.6016 31.4004 17.6016C33.9004 17.6016 35.9004 19.6016 35.9004 22.1016C35.9004 24.6016 33.9004 26.6016 31.4004 26.6016C28.9004 26.6016 26.9004 24.6016 26.9004 22.1016Z"/><path d="M62.2002 58.9008L58.1002 40.4008C57.9002 39.5008 57.2002 38.8008 56.2002 38.7008L44.3002 37.0008C48.1002 31.6008 51.2002 25.9008 51.2002 21.5008C51.2002 10.9008 42.3002 2.30078 31.4002 2.30078C20.5002 2.30078 11.6002 10.9008 11.6002 21.5008C11.6002 25.9008 14.7002 31.6008 18.5002 37.0008L6.5002 38.7008C5.5002 38.8008 4.8002 39.6008 4.6002 40.6008L1.8002 59.1008C1.7002 59.9008 2.0002 60.7008 2.6002 61.2008C3.2002 61.7008 4.0002 61.9008 4.8002 61.6008L18.0002 57.0008L31.3002 61.5008C31.8002 61.7008 32.3002 61.7008 32.7002 61.5008L46.0002 57.0008L59.3002 61.5008C59.5002 61.6008 59.8002 61.6008 60.0002 61.6008C60.5002 61.6008 61.1002 61.4008 61.5002 61.0008C62.1002 60.6008 62.4002 59.7008 62.2002 58.9008ZM31.4002 6.80078C39.9002 6.80078 46.7002 13.4008 46.7002 21.5008C46.7002 27.0008 38.8002 37.5008 31.4002 45.6008C24.0002 37.6008 16.1002 27.0008 16.1002 21.5008C16.1002 13.4008 22.9002 6.80078 31.4002 6.80078ZM46.7002 52.5008C46.2002 52.3008 45.7002 52.3008 45.3002 52.5008L32.0002 57.0008L18.7002 52.5008C18.2002 52.3008 17.7002 52.3008 17.3002 52.5008L6.8002 56.1008L8.8002 43.0008L21.5002 41.1008C23.8002 44.0008 26.2002 46.7008 28.1002 48.8008C28.9002 49.7008 30.1002 50.2008 31.3002 50.2008C32.5002 50.2008 33.7002 49.7008 34.5002 48.8008C36.4002 46.7008 38.8002 44.0008 41.1002 41.1008L54.1002 43.0008L57.0002 56.0008L46.7002 52.5008Z"/></svg>