<svg fill="#1C2033" width="52" height="52" viewBox="0 0 64 64" xmlns="http://www.w3.org/2000/svg"><path d="M32.0008 1.80078C15.3008 1.80078 1.80078 15.3008 1.80078 32.0008C1.80078 48.7008 15.3008 62.3008 32.0008 62.3008C48.7008 62.3008 62.3008 48.7008 62.3008 32.0008C62.3008 15.3008 48.7008 1.80078 32.0008 1.80078ZM32.0008 57.8008C17.8008 57.8008 6.30078 46.2008 6.30078 32.0008C6.30078 17.8008 17.8008 6.30078 32.0008 6.30078C46.2008 6.30078 57.8008 17.9008 57.8008 32.1008C57.8008 46.2008 46.2008 57.8008 32.0008 57.8008Z"/><path d="M15.8 28.2012C13.7 28.2012 12 29.9012 12 32.0012C12 34.1012 13.7 35.8012 15.8 35.8012C17.9 35.8012 19.6 34.1012 19.6 32.0012C19.6 29.9012 18 28.2012 15.8 28.2012Z"/><path d="M31.9992 28.2012C29.8992 28.2012 28.1992 29.9012 28.1992 32.0012C28.1992 34.1012 29.8992 35.8012 31.9992 35.8012C34.0992 35.8012 35.7992 34.1012 35.7992 32.0012C35.7992 29.9012 34.0992 28.2012 31.9992 28.2012Z"/><path d="M48.2023 28.1016C46.1023 28.1016 44.4023 29.8016 44.4023 31.9016C44.4023 34.0016 46.1023 35.7016 48.2023 35.7016C50.3023 35.7016 52.0023 34.1016 52.0023 32.0016C52.0023 29.9016 50.3023 28.1016 48.2023 28.1016Z"/></svg>