<?xml version="1.0" encoding="utf-8"?><!-- Generator: Adobe Illustrator 25.2.1, SVG Export Plug-In . SVG Version: 6.00 Build 0)  --><svg fill="#1C2033" width="52" height="52" version="1.1" id="lni_lni-newspaper" xmlns="http://www.w3.org/2000/svg" xmlns:xlink="http://www.w3.org/1999/xlink" x="0px"	 y="0px" viewBox="0 0 64 64" style="enable-background:new 0 0 64 64;" xml:space="preserve"><g>	<path d="M60,7.3c-1.2,0-2.2,1-2.2,2.2v40.7c0,3.8-3.1,6.9-6.9,6.9H12c-3.2,0-5.8-2.6-5.8-5.8v-42c0-1.3,1-2.3,2.3-2.3h37		c1.3,0,2.3,1,2.3,2.3v39c0,1.2,1,2.2,2.2,2.2s2.2-1,2.2-2.2v-39c0-3.8-3.1-6.8-6.8-6.8h-37c-3.8,0-6.8,3.1-6.8,6.8v42		C1.7,57,6.3,61.6,12,61.6h38.9c6.3,0,11.4-5.1,11.4-11.4V9.5C62.3,8.3,61.2,7.3,60,7.3z"/>	<path d="M42.5,11.5H12.8c-1.2,0-2.2,1-2.2,2.2s1,2.2,2.2,2.2h29.8c1.2,0,2.2-1,2.2-2.2S43.8,11.5,42.5,11.5z"/>	<path d="M12.8,49.6h29.8c1.2,0,2.2-1,2.2-2.2s-1-2.2-2.2-2.2H12.8c-1.2,0-2.2,1-2.2,2.2S11.5,49.6,12.8,49.6z"/>	<path d="M14.2,38.5h10.1c2.3,0,4.2-1.9,4.2-4.2v-10c0-2.3-1.9-4.2-4.2-4.2H14.2c-2.3,0-4.2,1.9-4.2,4.2v10		C10.1,36.6,11.9,38.5,14.2,38.5z M14.6,24.6H24V34h-9.4V24.6z"/>	<path d="M35.1,26.2h6.8c1.2,0,2.2-1,2.2-2.2s-1-2.2-2.2-2.2h-6.8c-1.2,0-2.2,1-2.2,2.2S33.9,26.2,35.1,26.2z"/>	<path d="M35.1,36.3h6.8c1.2,0,2.2-1,2.2-2.2s-1-2.2-2.2-2.2h-6.8c-1.2,0-2.2,1-2.2,2.2S33.9,36.3,35.1,36.3z"/></g></svg>