<svg fill="#1C2033" width="52" height="52" viewBox="0 0 64 64" xmlns="http://www.w3.org/2000/svg"><path d="M22.6023 40.1002C24.9219 40.1002 26.8023 38.2198 26.8023 35.9002C26.8023 33.5806 24.9219 31.7002 22.6023 31.7002C20.2827 31.7002 18.4023 33.5806 18.4023 35.9002C18.4023 38.2198 20.2827 40.1002 22.6023 40.1002Z"/><path d="M41.4031 40.1002C43.7227 40.1002 45.6031 38.2198 45.6031 35.9002C45.6031 33.5806 43.7227 31.7002 41.4031 31.7002C39.0835 31.7002 37.2031 33.5806 37.2031 35.9002C37.2031 38.2198 39.0835 40.1002 41.4031 40.1002Z"/><path d="M32.0031 51.1996C36.6031 51.1996 39.9031 50.0996 42.0031 48.0996C42.4031 47.6996 42.4031 46.7996 42.0031 46.3996C41.6031 45.9996 40.7031 45.9996 40.3031 46.3996C38.8031 48.0996 36.0031 48.7996 32.0031 48.7996C28.0031 48.7996 25.3031 47.9996 23.7031 46.3996C23.3031 45.9996 22.4031 45.9996 22.0031 46.3996C21.6031 46.7996 21.6031 47.6996 22.0031 48.0996C24.1031 50.1996 27.4031 51.1996 32.0031 51.1996Z"/><path d="M45.7016 55.3C47.7016 54.5 49.6016 53.6 51.3016 52.5C56.6016 49 59.6016 44.2 59.6016 39.3C59.6016 38.6 59.5016 37.9 59.5016 37.3C61.5016 36 63.0016 33.8 63.0016 31.3C63.0016 27.4 59.8016 24.3 56.0016 24.3C54.3016 24.3 52.5016 25 51.4016 26C46.6016 22.9 40.5016 21.2 33.9016 21L37.5016 9.5L47.3016 11.9C47.3016 15.1 50.0016 17.7 53.1016 17.7C56.2016 17.7 58.9016 15 58.9016 11.9C58.9016 8.8 56.1016 6 53.0016 6C50.6016 6 48.5016 7.4 47.7016 9.5L36.8016 7.2C36.2016 7 35.5016 7.3 35.4016 8L31.2016 21.2C24.2016 21.3 17.7016 23.2 12.7016 26.2C11.4016 25.1 9.80156 24.5 8.10156 24.5C4.20156 24.5 1.10156 27.7 1.10156 31.5C1.10156 34 2.50156 36.3 4.60156 37.5C4.50156 38.2 4.50156 38.9 4.50156 39.5C4.50156 44.5 7.40156 49.2 12.8016 52.7C14.5016 53.8 16.3016 54.7 18.4016 55.5C18.3016 55.3 32.8016 61.3 45.7016 55.3ZM53.0016 8.3C54.8016 8.3 56.5016 9.8 56.5016 11.8C56.5016 13.6 55.0016 15.3 53.0016 15.3C51.2016 15.3 49.5016 13.8 49.5016 11.8C49.5016 9.8 51.1016 8.3 53.0016 8.3ZM3.50156 31.3C3.50156 28.8 5.50156 26.7 8.10156 26.7C9.10156 26.7 10.1016 27 10.8016 27.5C8.10156 29.6 6.20156 32.1 5.20156 34.9C4.10156 34 3.50156 32.7 3.50156 31.3ZM32.0016 55.4C18.1016 55.4 6.80156 48.1 6.80156 39.4C6.80156 30.7 18.1016 23.3 32.0016 23.3C45.9016 23.3 57.2016 30.6 57.2016 39.3C57.2016 48 45.9016 55.4 32.0016 55.4ZM58.9016 34.8C57.9016 32.1 56.0016 29.6 53.3016 27.4C54.1016 26.8 55.0016 26.6 56.0016 26.6C58.5016 26.6 60.6016 28.6 60.6016 31.2C60.5016 32.7 59.9016 34 58.9016 34.8Z"/></svg>