<svg fill="#1C2033" width="52" height="52" viewBox="0 0 64 64" xmlns="http://www.w3.org/2000/svg"><path d="M59.5999 29.7009C59.1999 29.0009 58.5999 28.5009 57.8999 28.1009L11.7999 2.30087C10.9999 1.90087 10.0999 1.70087 9.19989 1.80087C8.29989 1.90087 7.49989 2.20087 6.79989 2.80087C6.09989 3.40087 5.59989 4.20087 5.39989 5.00087C5.09989 5.90087 5.19989 6.80087 5.49989 7.70087L14.0999 32.0009L5.49989 56.3009C5.19989 57.2009 5.19989 58.1009 5.39989 58.9009C5.59989 59.8009 6.09989 60.5009 6.79989 61.1009C7.49989 61.7009 8.29989 62.0009 9.19989 62.1009C9.29989 62.1009 9.49989 62.1009 9.59989 62.1009C10.2999 62.1009 11.0999 61.9009 11.7999 61.5009L57.8999 35.7009C58.5999 35.3009 59.1999 34.8009 59.5999 34.1009C59.9999 33.4009 60.1999 32.6009 60.1999 31.9009C60.1999 31.2009 59.9999 30.4009 59.5999 29.7009ZM9.79989 6.30087L51.5999 29.7009H18.0999L9.79989 6.30087ZM9.79989 57.7009L18.1999 34.3009H51.6999L9.79989 57.7009Z"/></svg>