<svg fill="#1C2033" width="52" height="52" viewBox="0 0 64 64" xmlns="http://www.w3.org/2000/svg"><path d="M32 62.3008C31.7 62.3008 31.4 62.2008 31.2 62.1008C23.4 59.0008 16.8 53.8008 12 46.9008C7.1 39.8008 4.5 31.5008 4.5 22.9008V14.0008C4.5 12.9008 5.3 11.9008 6.4 11.8008C10.5 11.2008 13.9 7.80078 14.5 3.70078C14.7 2.60078 15.6 1.80078 16.7 1.80078H47.3C48.4 1.80078 49.4 2.60078 49.5 3.70078C50.1 7.80078 53.5 11.2008 57.6 11.8008C58.7 12.0008 59.5 12.9008 59.5 14.0008V22.8008C59.5 31.4008 56.9 39.7008 52 46.8008C47.2 53.8008 40.6 59.0008 32.8 62.1008C32.6 62.2008 32.3 62.3008 32 62.3008ZM9 15.8008V22.9008C9 30.6008 11.3 38.0008 15.7 44.4008C19.8 50.3008 25.4 54.9008 32 57.6008C38.6 54.8008 44.2 50.3008 48.3 44.4008C52.7 38.0008 55 30.6008 55 22.8008V15.7008C50.4 14.3008 46.8 10.7008 45.5 6.20078H18.5C17.1 10.8008 13.5 14.4008 9 15.8008Z"/></svg>