<svg fill="#1C2033" width="52" height="52" viewBox="0 0 64 64" xmlns="http://www.w3.org/2000/svg"><path d="M61.5992 48.3017L51.9992 38.2017C51.0992 37.3017 49.6992 37.3017 48.7992 38.1017C47.8992 39.0017 47.8992 40.4017 48.6992 41.3017L54.6992 47.6017H3.99922C2.79922 47.6017 1.69922 48.6017 1.69922 49.9017C1.69922 51.2017 2.69922 52.2017 3.99922 52.2017H54.7992L48.7992 58.5017C47.8992 59.4017 47.9992 60.8017 48.8992 61.7017C49.2992 62.1017 49.8992 62.3017 50.3992 62.3017C50.9992 62.3017 51.5992 62.1017 51.9992 61.6017L61.5992 51.5017C62.4992 50.5017 62.4992 49.1017 61.5992 48.3017Z"/><path d="M12.0008 25.8009C12.4008 26.3009 13.0008 26.5009 13.6008 26.5009C14.2008 26.5009 14.7008 26.3009 15.1008 25.9009C16.0008 25.0009 16.0008 23.6009 15.2008 22.7009L9.20078 16.4009H60.0008C61.2008 16.4009 62.3008 15.4009 62.3008 14.1009C62.3008 12.8009 61.3008 11.8009 60.0008 11.8009H9.20078L15.2008 5.50091C16.1008 4.60091 16.0008 3.20091 15.1008 2.30091C14.2008 1.40091 12.8008 1.50091 11.9008 2.40091L2.40078 12.6009C1.60078 13.5009 1.60078 14.8009 2.40078 15.7009L12.0008 25.8009Z"/></svg>