<svg fill="#1C2033" width="52" height="52" viewBox="0 0 64 64" xmlns="http://www.w3.org/2000/svg"><path d="M50.1008 59.1C48.4008 60.8 44.1008 63 38.3008 63C23.7008 63 20.4008 52.3 20.4008 46V28.5H14.6008C13.9008 28.5 13.3008 27.9 13.3008 27.2V19C13.3008 18.2 13.9008 17.3 14.7008 17C22.4008 14.4 24.7008 7.9 25.0008 3C25.1008 1.6 25.7008 1 27.0008 1H35.6008C36.3008 1 36.9009 1.6 36.9009 2.3V16.2H47.0008C47.7008 16.2 48.3008 16.6 48.3008 17.3V27.1C48.3008 27.8 47.7008 28.4 47.0008 28.4H36.8008V44.4C36.8008 48.6 39.8008 50.9 45.0008 48.8C45.6008 48.7 46.1008 48.4 46.5008 48.5C46.9008 48.6 47.2008 48.9 47.3008 49.5L50.0008 57.2C50.3008 57.8 50.6008 58.6 50.1008 59.1Z"/></svg>