<svg fill="#1C2033" width="52" height="52" viewBox="0 0 64 64" xmlns="http://www.w3.org/2000/svg"><path d="M59.9992 41.5C58.7992 41.5 57.6992 42.5 57.6992 43.8V52.7C57.6992 53.6 56.9992 54.3 56.0992 54.3H7.89922C6.99922 54.3 6.29922 53.6 6.29922 52.7V43.8C6.29922 42.6 5.29922 41.5 3.99922 41.5C2.69922 41.5 1.69922 42.5 1.69922 43.8V52.7C1.69922 56.1 4.39922 58.8 7.79922 58.8H56.0992C59.4992 58.8 62.1992 56.1 62.1992 52.7V43.8C62.2992 42.5 61.1992 41.5 59.9992 41.5Z"/><path d="M17.7002 23.6998C18.3002 23.6998 18.8002 23.4998 19.3002 23.0998L29.8002 12.8998V42.3998C29.8002 43.5998 30.8002 44.6998 32.1002 44.6998C33.3002 44.6998 34.4002 43.6998 34.4002 42.3998V12.7998L44.8002 22.9998C45.7002 23.8998 47.1002 23.7998 48.0002 22.9998C48.9002 22.0998 48.8002 20.6998 48.0002 19.7998L33.6002 5.89977C32.7002 5.09977 31.3002 4.99977 30.5002 5.89977L16.1002 19.7998C15.2002 20.6998 15.2002 22.0998 16.0002 22.9998C16.5002 23.3998 17.1002 23.6998 17.7002 23.6998Z"/></svg>