<svg fill="#1C2033" width="52" height="52" viewBox="0 0 64 64" xmlns="http://www.w3.org/2000/svg"><path d="M31.9996 27.7002C39.3996 27.7002 45.3996 21.9002 45.3996 14.7002C45.3996 7.5002 39.3996 1.7002 31.9996 1.7002C24.5996 1.7002 18.5996 7.5002 18.5996 14.7002C18.5996 21.9002 24.5996 27.7002 31.9996 27.7002ZM31.9996 6.3002C36.8996 6.3002 40.8996 10.1002 40.8996 14.8002C40.8996 19.5002 36.8996 23.3002 31.9996 23.3002C27.0996 23.3002 23.0996 19.5002 23.0996 14.8002C23.0996 10.1002 27.0996 6.3002 31.9996 6.3002Z"/><path d="M38.4996 32.2002H25.4996C14.7996 32.2002 6.09961 41.0002 6.09961 51.7002V60.0002C6.09961 61.2002 7.09961 62.3002 8.39961 62.3002C9.69961 62.3002 10.6996 61.3002 10.6996 60.0002V51.7002C10.6996 43.5002 17.3996 36.7002 25.6996 36.7002H38.5996C46.7996 36.7002 53.5996 43.4002 53.5996 51.7002V60.0002C53.5996 61.2002 54.5996 62.3002 55.8996 62.3002C57.1996 62.3002 58.1996 61.3002 58.1996 60.0002V51.7002C57.8996 41.0002 49.1996 32.2002 38.4996 32.2002Z"/></svg>