<svg fill="#1C2033" width="52" height="52" viewBox="0 0 64 64" xmlns="http://www.w3.org/2000/svg"><path d="M45.2004 47.2998C44.0004 47.2998 42.9004 48.2998 42.9004 49.5998V52.9998C42.9004 54.1998 43.9004 55.2998 45.2004 55.2998C46.5004 55.2998 47.5004 54.2998 47.5004 52.9998V49.5998C47.5004 48.2998 46.5004 47.2998 45.2004 47.2998Z"/><path d="M45.2004 32.5998C44.7004 32.5998 44.2004 32.5998 43.8004 32.6998C40.9004 29.3998 37.4004 26.9998 33.5004 25.7998C37.4004 23.5998 40.1004 19.3998 40.1004 14.5998C40.1004 7.4998 34.3004 1.7998 27.3004 1.7998C20.2004 1.7998 14.5004 7.5998 14.5004 14.5998C14.5004 19.3998 17.2004 23.5998 21.1004 25.7998C17.2004 26.9998 13.6004 29.3998 10.7004 32.7998C6.50039 37.7998 4.10039 44.7998 3.90039 52.3998C3.90039 53.2998 4.40039 54.0998 5.10039 54.4998C7.80039 55.7998 17.2004 60.0998 27.3004 60.0998C30.2004 60.0998 33.2004 59.7998 36.2004 59.1998C38.7004 61.0998 41.8004 62.2998 45.2004 62.2998C53.4004 62.2998 60.0004 55.5998 60.0004 47.4998C60.0004 39.3998 53.4004 32.5998 45.2004 32.5998ZM27.3004 6.2998C31.9004 6.2998 35.6004 9.9998 35.6004 14.5998C35.6004 19.1998 31.9004 22.8998 27.3004 22.8998C22.7004 22.8998 19.0004 19.1998 19.0004 14.5998C19.0004 9.9998 22.7004 6.2998 27.3004 6.2998ZM8.50039 51.0998C8.90039 45.0998 10.9004 39.6998 14.2004 35.6998C17.7004 31.5998 22.4004 29.2998 27.4004 29.2998C31.7004 29.2998 35.7004 30.9998 39.0004 33.9998C34.0004 36.3998 30.5004 41.4998 30.5004 47.3998C30.5004 50.2998 31.3004 52.8998 32.8004 55.1998C31.0004 55.3998 29.2004 55.5998 27.5004 55.5998C19.5004 55.5998 11.9004 52.6998 8.50039 51.0998ZM45.2004 57.7998C39.5004 57.7998 34.9004 53.1998 34.9004 47.4998C34.9004 41.7998 39.5004 37.1998 45.2004 37.1998C50.9004 37.1998 55.5004 41.7998 55.5004 47.4998C55.5004 53.1998 50.9004 57.7998 45.2004 57.7998Z"/><path d="M44.0004 45.5996C44.1004 45.6996 44.3004 45.6996 44.4004 45.7996C44.5004 45.8996 44.7004 45.8996 44.8004 45.8996C44.9004 45.8996 45.1004 45.8996 45.2004 45.8996C45.8004 45.8996 46.4004 45.6996 46.8004 45.1996C46.9004 45.0996 47.0004 44.9996 47.1004 44.8996C47.2004 44.7996 47.3004 44.5996 47.3004 44.4996C47.4004 44.3996 47.4004 44.1996 47.4004 44.0996C47.4004 43.9996 47.4004 43.7996 47.4004 43.6996C47.4004 43.4996 47.4004 43.3996 47.4004 43.2996C47.4004 43.1996 47.3004 42.9996 47.3004 42.8996C47.2004 42.7996 47.2004 42.5996 47.1004 42.4996C47.0004 42.3996 46.9004 42.2996 46.8004 42.1996C46.0004 41.3996 44.4004 41.3996 43.6004 42.1996C43.2004 42.5996 42.9004 43.1996 42.9004 43.7996C42.9004 44.3996 43.1004 44.9996 43.6004 45.3996C43.8004 45.4996 43.9004 45.4996 44.0004 45.5996Z"/></svg>